
<svg width="550" height="450" viewBox="0 0 550 450" fill="none" xmlns="http://www.w3.org/2000/svg">
<path d="M517.961 180.133C516.32 173.344 513.383 167.114 509.35 161.85C502.266 152.797 492.352 147.266 481.5 147.266H168.961C163.684 147.266 158.543 148.832 154.277 151.723C150.012 154.613 146.824 158.684 145.148 163.414L124.648 226.43H119C110.168 226.43 103 233.598 103 242.43V419.5C103 428.332 110.168 435.5 119 435.5H481.5C490.332 435.5 497.5 428.332 497.5 419.5V365.176C497.5 362.48 498.422 359.848 500.121 357.852C501.82 355.855 504.207 354.707 506.75 354.707C509.293 354.707 511.68 355.855 513.379 357.852C515.078 359.848 516 362.48 516 365.176V419.5C516 433.816 504.816 445.5 490.5 445.5H119C104.684 445.5 93 433.816 93 419.5V242.43C93 228.113 104.684 216.43 119 216.43H129.57L149.352 155.152C151.988 147.926 157.695 142.234 164.848 139.633C171.996 137.031 179.934 137.785 186.539 141.676L332.742 229.43H481.5C495.234 229.43 506.75 217.914 506.75 204.18C506.75 194.883 501.074 186.73 492.539 183.133L517.961 180.133ZM221 282.812H301.5C306.2 282.812 310 279.012 310 274.312C310 269.613 306.2 265.812 301.5 265.812H221C216.3 265.812 212.5 269.613 212.5 274.312C212.5 279.012 216.3 282.812 221 282.812ZM221 324.938H386C390.7 324.938 394.5 321.137 394.5 316.438C394.5 311.738 390.7 307.938 386 307.938H221C216.3 307.938 212.5 311.738 212.5 316.438C212.5 321.137 216.3 324.938 221 324.938ZM221 367.062H349.5C354.2 367.062 358 363.262 358 358.562C358 353.863 354.2 350.062 349.5 350.062H221C216.3 350.062 212.5 353.863 212.5 358.562C212.5 363.262 216.3 367.062 221 367.062Z" fill="#2D2D2D"/>
<path d="M481.5 137.266C495.234 137.266 506.75 125.75 506.75 112C506.75 98.25 495.234 86.7344 481.5 86.7344H168.961C155.227 86.7344 143.711 98.25 143.711 112C143.711 125.75 155.227 137.266 168.961 137.266H481.5Z" fill="#FFD700"/>
<path d="M444.5 28.5C453.332 28.5 460.5 21.332 460.5 12.5C460.5 3.66797 453.332 -3.5 444.5 -3.5C435.668 -3.5 428.5 3.66797 428.5 12.5C428.5 21.332 435.668 28.5 444.5 28.5Z" fill="#FFD700"/>
<path d="M481.5 28.5C490.332 28.5 497.5 21.332 497.5 12.5C497.5 3.66797 490.332 -3.5 481.5 -3.5C472.668 -3.5 465.5 3.66797 465.5 12.5C465.5 21.332 472.668 28.5 481.5 28.5Z" fill="#FFD7A0"/>
<path d="M518.5 28.5C527.332 28.5 534.5 21.332 534.5 12.5C534.5 3.66797 527.332 -3.5 518.5 -3.5C509.668 -3.5 502.5 3.66797 502.5 12.5C502.5 21.332 509.668 28.5 518.5 28.5Z" fill="#FFD700"/>
<path d="M481.5 137.266C495.234 137.266 506.75 125.75 506.75 112C506.75 98.25 495.234 86.7344 481.5 86.7344H168.961C155.227 86.7344 143.711 98.25 143.711 112C143.711 125.75 155.227 137.266 168.961 137.266H481.5Z" fill="#FFD700"/>
<path d="M481.5 147.266C492.352 147.266 501.266 151.797 508.35 160.85L518.422 153.348C509.68 142.113 496.086 136.266 481.5 136.266H168.961C154.512 136.266 141.254 142.66 132.852 153.648L143.148 162.414C145.824 157.684 149.012 153.613 153.277 150.723C157.543 147.832 162.684 146.266 167.961 146.266H481.5V147.266Z" fill="#2D2D2D"/>
<path d="M124.648 226.43L145.148 163.414C146.824 158.684 150.012 154.613 154.277 151.723C158.543 148.832 163.684 147.266 168.961 147.266H481.5C492.352 147.266 501.266 151.797 508.35 160.85L518.422 153.348C509.68 142.113 496.086 136.266 481.5 136.266H168.961C154.512 136.266 141.254 142.66 132.852 153.648L122.555 162.414L119 226.43H124.648Z" fill="#2D2D2D"/>
<path d="M333 229.43L186.539 141.676C179.934 137.785 171.996 137.031 164.848 139.633C157.695 142.234 151.988 147.926 149.352 155.152L129.57 216.43H119C104.684 216.43 93 228.113 93 242.43V419.5C93 433.816 104.684 445.5 119 445.5H490.5C504.816 445.5 516 433.816 516 419.5V365.176C516 362.48 515.078 359.848 513.379 357.852C511.68 355.855 509.293 354.707 506.75 354.707C504.207 354.707 501.82 355.855 500.121 357.852C498.422 359.848 497.5 362.48 497.5 365.176V419.5C497.5 428.332 490.332 435.5 481.5 435.5H119C110.168 435.5 103 428.332 103 419.5V242.43C103 233.598 110.168 226.43 119 226.43H124.648L145.148 163.414C146.824 158.684 150.012 154.613 154.277 151.723C158.543 148.832 163.684 147.266 168.961 147.266H333V229.43Z" fill="#2D2D2D"/>
</svg>
